<svg xmlns="http://www.w3.org/2000/svg" xml:space="preserve" viewBox="0 -1 512 512">
<style>path { fill: black; stroke-width: 0; } @media (prefers-color-scheme: dark) { path { fill: white; } }</style>
<path d="M3 482c0-29 0-29 7-29 8 0 8 0 8-7 0-8 0-8 22-8 21 0 21 0 21 8 0 7 0 7 8 7 7 0 7 0 7 7 0 8 0 8-7 8-8 0-8 0-8 7s0 7 8 7c7 0 7 0 7 8 0 7 0 7-7 7-8 0-8 0-8 7 0 8 0 8-29 8s-29 0-29-30zm58 8c0-8 0-8-21-8-22 0-22 0-22 8 0 7 0 7 22 7 21 0 21 0 21-7zm0-30c0-7 0-7-21-7-22 0-22 0-22 7 0 8 0 8 22 8 21 0 21 0 21-8zm29 22c0-29 0-29 8-29 7 0 7 0 7-7 0-8 0-8 22-8s22 0 22 8c0 7 0 7 7 7s7 0 7 29c0 30 0 30-7 30s-7 0-7-15 0-15-22-15-22 0-22 15 0 15-7 15c-8 0-8 0-8-30zm59-22c0-7 0-7-22-7s-22 0-22 7c0 8 0 8 22 8s22 0 22-8zm43 44c0-7 0-7-7-7s-7 0-7-22 0-22 7-22 7 0 7-7c0-8 0-8 29-8s29 0 29 8c0 7 0 7-29 7s-29 0-29 22 0 22 29 22 29 0 29 7c0 8 0 8-29 8s-29 0-29-8zm73-29c0-37 0-37 7-37s7 0 7 15 0 15 15 15c14 0 14 0 14-8 0-7 0-7 8-7 7 0 7 0 7-7 0-8 0-8 7-8 8 0 8 0 8 8 0 7 0 7-8 7-7 0-7 0-7 7 0 8 0 8-7 8-8 0-8 0-8 7s0 7 8 7c7 0 7 0 7 8 0 7 0 7 7 7 8 0 8 0 8 7 0 8 0 8-8 8-7 0-7 0-7-8 0-7 0-7-7-7-8 0-8 0-8-7 0-8 0-8-14-8-15 0-15 0-15 15s0 15-7 15-7 0-7-37zm102 29c0-7 0-7-8-7-7 0-7 0-7-29 0-30 0-30 7-30 8 0 8 0 8 30 0 29 0 29 21 29 22 0 22 0 22-29 0-30 0-30 8-30 7 0 7 0 7 30 0 29 0 29-7 29-8 0-8 0-8 7 0 8 0 8-22 8-21 0-21 0-21-8zm72-22c0-29 0-29 8-29 7 0 7 0 7-7 0-8 0-8 22-8 21 0 21 0 21 8 0 7 0 7 8 7 7 0 7 0 7 7 0 8 0 8-7 8-8 0-8 0-8 7s0 7-21 7c-22 0-22 0-22 15s0 15-7 15c-8 0-8 0-8-30zm58-22c0-7 0-7-21-7-22 0-22 0-22 7 0 8 0 8 22 8 21 0 21 0 21-8zM0 354c0-40 0-40 39-40s39 0 39 40 0 40-39 40-39 0-39-40Zm116-34c0-74 0-74 18-74 17-1 17-1 17-18 1-28 114-28 114 0 0 18 0 18 18 18 17 0 17 0 17 21s0 21-17 21c-18 0-18 0-18 14s0 14 18 14c17 0 17 0 17 22s0 22-17 22c-18 0-18 0-18 17s0 17-74 17c-75 0-75 0-75-74zm139 18c0-14 0-14-47-14-48 0-48 0-48 14s0 14 48 14c47 0 47 0 47-14zm0-71c0-13 0-13-47-13-48 0-48 0-48 13s0 13 48 13c47 0 47 0 47-13zm71 53c0-74 0-74 18-74 17-1 17-1 17-18 1-28 114-28 114 0 0 18 0 18 18 18 17 0 17 0 17 74s0 74-22 74c-23 0-23 0-23-35s0-35-47-35c-48 0-48 0-48 35s0 35-22 35-22 0-22-74zm139-53c0-13 0-13-47-13-48 0-48 0-48 13s0 13 48 13c47 0 47 0 47-13zM0 134C0 5 0 5 39 5s39 0 39 129c0 128 0 128-39 128S0 262 0 134Zm297 67c0-14 0-14 14-14s14 0 14 14 0 14-14 14-14 0-14-14zM115 97c0-64 0-64 15-64s15 0 16-15c0-24 66-24 67 0 1 23 22 23 23-1 1-13 60-23 93-14 4 0 4 0 4 64 0 63 0 63 5 63 6 0 6 0 6 13 0 12 0 12-31 12-30 0-30 0-30-12 0-13 0-13 6-13 7 0 7 0 7-44 0-45 0-45-27-45s-27 0-27 45c0 44 0 44-18 44s-18 0-18-45c-1-44-1-44-27-44s-26 0-26 59c0 60 0 60-19 60s-19 0-19-63zm300 33c0-29 0-29-30-29s-30 0-29-49c0-49 0-49 18-49s18 0 18 29c1 30 1 30 15 30s14 0 15 15c1 24 22 25 23 1 0-15 0-15 15-16 15 0 15 0 15-30 1-29 1-29 18-29 18 0 18 0 18 48 0 49 0 49-29 50-30 0-30 0-30 29 0 30 0 30-18 30-19 0-19 0-19-30z"/>
</svg>
