<svg xmlns="http://www.w3.org/2000/svg" xml:space="preserve" viewBox="0 -.5 83.6 83.6">
<style>path { fill: black; stroke-width: 0; } @media (prefers-color-scheme: dark) { path { fill: white; } }</style>
<path d="M.3 77.5c0-4.7 0-4.7 1.2-4.7 1.1 0 1.1 0 1.1-1.2s0-1.2 3.6-1.2 3.6 0 3.6 1.2 0 1.2 1.2 1.2 1.2 0 1.2 1.2c0 1.1 0 1.1-1.2 1.1s-1.2 0-1.2 1.2 0 1.2 1.2 1.2 1.2 0 1.2 1.2 0 1.2-1.2 1.2-1.2 0-1.2 1.2 0 1.2-4.8 1.2c-4.7 0-4.7 0-4.7-4.8zm9.5 1.2c0-1.2 0-1.2-3.6-1.2s-3.6 0-3.6 1.2 0 1.2 3.6 1.2 3.6 0 3.6-1.2zm0-4.7c0-1.2 0-1.2-3.6-1.2s-3.6 0-3.6 1.2c0 1.1 0 1.1 3.6 1.1s3.6 0 3.6-1.1zm4.8 3.5c0-4.7 0-4.7 1.1-4.7 1.2 0 1.2 0 1.2-1.2s0-1.2 3.6-1.2 3.6 0 3.6 1.2 0 1.2 1.2 1.2 1.2 0 1.2 4.7c0 4.8 0 4.8-1.2 4.8s-1.2 0-1.2-2.4 0-2.4-3.6-2.4-3.6 0-3.6 2.4 0 2.4-1.2 2.4c-1.1 0-1.1 0-1.1-4.8zM24 74c0-1.2 0-1.2-3.6-1.2S17 72.8 17 74c0 1.1 0 1.1 3.6 1.1s3.6 0 3.6-1.1zm7.1 7c0-1.1 0-1.1-1.2-1.1s-1.2 0-1.2-3.6c0-3.5 0-3.5 1.2-3.5s1.2 0 1.2-1.2 0-1.2 4.8-1.2c4.7 0 4.7 0 4.7 1.2s0 1.2-4.7 1.2c-4.8 0-4.8 0-4.8 3.5 0 3.6 0 3.6 4.8 3.6 4.7 0 4.7 0 4.7 1.2s0 1.2-4.7 1.2c-4.8 0-4.8 0-4.8-1.2zm12-4.7c0-6 0-6 1.1-6 1.2 0 1.2 0 1.2 2.5 0 2.3 0 2.3 2.4 2.3s2.4 0 2.4-1.1c0-1.2 0-1.2 1.2-1.2s1.2 0 1.2-1.2 0-1.2 1.1-1.2c1.2 0 1.2 0 1.2 1.2s0 1.2-1.2 1.2c-1.1 0-1.1 0-1.1 1.2 0 1.1 0 1.1-1.2 1.1s-1.2 0-1.2 1.2 0 1.2 1.2 1.2 1.2 0 1.2 1.2 0 1.2 1.1 1.2c1.2 0 1.2 0 1.2 1.2s0 1.2-1.2 1.2c-1.1 0-1.1 0-1.1-1.2s0-1.2-1.2-1.2-1.2 0-1.2-1.2 0-1.2-2.4-1.2-2.4 0-2.4 2.4 0 2.4-1.2 2.4-1.2 0-1.2-6zm16.6 4.8c0-1.2 0-1.2-1.2-1.2s-1.2 0-1.2-4.8c0-4.7 0-4.7 1.2-4.7s1.2 0 1.2 4.7c0 4.8 0 4.8 3.6 4.8 3.5 0 3.5 0 3.5-4.8 0-4.7 0-4.7 1.2-4.7s1.2 0 1.2 4.7c0 4.8 0 4.8-1.2 4.8s-1.2 0-1.2 1.2 0 1.2-3.5 1.2c-3.6 0-3.6 0-3.6-1.2zm11.9-3.6c0-4.7 0-4.7 1.2-4.7s1.2 0 1.2-1.2 0-1.2 3.6-1.2c3.5 0 3.5 0 3.5 1.2s0 1.2 1.2 1.2 1.2 0 1.2 1.2c0 1.1 0 1.1-1.2 1.1s-1.2 0-1.2 1.2 0 1.2-3.5 1.2c-3.6 0-3.6 0-3.6 2.4s0 2.4-1.2 2.4-1.2 0-1.2-4.8zm9.5-3.5c0-1.2 0-1.2-3.5-1.2-3.6 0-3.6 0-3.6 1.2 0 1.1 0 1.1 3.6 1.1 3.5 0 3.5 0 3.5-1.1zM0 51.2c0-12 0-12 2.8-12.1 2.9 0 2.9 0 3-3 0-4.5 18.5-4.4 18.5.1 0 3 0 3 3 3 2.9 0 2.9 0 2.9 3.4s0 3.4-3 3.4c-2.9 0-2.9 0-2.9 2.3 0 2.2 0 2.2 3 2.2 2.9 0 2.9 0 2.9 3.6s0 3.6-3 3.6c-2.9 0-2.9 0-2.9 2.8 0 2.7 0 2.7-12.1 2.7C0 63.2 0 63.2 0 51.2zm22.8 3c0-2.3 0-2.3-7.9-2.3-7.8 0-7.8 0-7.8 2.2 0 2.3 0 2.3 7.8 2.3 7.9 0 7.9 0 7.9-2.3zm0-11.6c0-2.1 0-2.1-7.9-2.1-7.8 0-7.8 0-7.8 2.1s0 2.1 7.8 2.1c7.9 0 7.9 0 7.9-2.1zm11.6 8.6c0-12 0-12 2.8-12.1 2.9 0 2.9 0 3-3 0-4.5 18.5-4.4 18.5.1 0 3 0 3 3 3 2.9 0 2.9 0 2.9 12s0 12-3.7 12-3.7 0-3.7-5.7c0-5.6 0-5.6-7.9-5.6-7.8 0-7.8 0-7.8 5.6 0 5.7 0 5.7-3.5 5.7-3.6 0-3.6 0-3.6-12zm22.8-8.6c0-2.1 0-2.1-7.9-2.1-7.8 0-7.8 0-7.8 2.1s0 2.1 7.8 2.1c7.9 0 7.9 0 7.9-2.1zm13.4 14.2c0-6.5 0-6.5 6.4-6.5 6.3 0 6.3 0 6.3 6.5 0 6.4 0 6.4-6.3 6.4-6.4 0-6.4 0-6.4-6.4zm0-37.9C70.6 0 70.6 0 77 0c6.3 0 6.3 0 6.3 19 0 18.8 0 18.8-6.3 18.8-6.4 0-6.4 0-6.4-18.9zm-41 13c0-2.3 0-2.3 2.3-2.3 2.2 0 2.2 0 2.2 2.3 0 2.2 0 2.2-2.2 2.2-2.3 0-2.3 0-2.3-2.2zm-27-17c0-9.3 0-9.3 2.3-9.3C7 5.6 7 5.6 7 3.3c0-2.2 0-2.2 5-2.2 4.8 0 4.8 0 4.8 2.2 0 2.3 0 2.3 1.6 2.3s1.6 0 1.6-2.3c0-2.2 0-2.2 7.3-2.2s7.3 0 7.3 11.5 0 11.5-2.8 11.5-2.8 0-2.8-8.8c0-8.7 0-8.7-3.8-8.7-3.9 0-3.9 0-3.9 6.5s0 6.5-2.7 6.5c-2.8 0-2.8 0-2.8-6.5s0-6.5-3.9-6.5c-3.8 0-3.8 0-3.8 8.7 0 8.8 0 8.8-2.8 8.8s-2.8 0-2.8-9.3zm44 4.8c0-4.4 0-4.4-4.4-4.4s-4.4 0-4.4-7.1 0-7.1 2.8-7.1 2.8 0 2.8 4.3c0 4.4 0 4.4 2.1 4.4s2.1 0 2.2 2.2c.1 3.5 3.4 3.6 3.4 0 0-2.2 0-2.2 2-2.2 2.2 0 2.2 0 2.2-4.4 0-4.3 0-4.3 2.8-4.3s2.8 0 2.8 7.1 0 7.1-4.4 7.1-4.4 0-4.4 4.4 0 4.4-2.8 4.4c-2.7 0-2.7 0-2.7-4.4z"/>
</svg>
